#!OML:ASF F:\VICON\USERDATA\INSTALL\rory3\rory3.ASF
:FULLY-SPECIFIED
:DEGREES
65
root 0.31356097624240503 17.692361149594078 32.631141621812404 -3.2842174087521148 -2.927576263493532 -3.834058415147596
lfemur -23.00089950408317 -6.157431706484543 -14.122903385536764
ltibia 21.932259924904358
lfoot -0.6992654627866788 -1.3404378190295745
ltoes -15.326404544724054
rfemur 0.7703635250472214 0.7370255407456683 27.921275940374155
rtibia 52.20672760615761
rfoot 9.433902503904193 7.65149016750753
rtoes 9.923174334529708
lowerback 1.0 1.3217509519575665 3.4292273932717636
upperback 0.3453340730258515 3.101824649048147 0.9351202734842731
thorax -4.368460583650269 1.6046254786454794 -0.9251056925888828
lowerneck -15.708911163811733 -3.0599824574483265 -2.021975724410284
upperneck 24.585631536561248 -4.970874370018148 -0.12535282867655756
head 10.615916131401924 -2.225928848761367 -0.43306738862159194
lclavicle -2.284843975819697e-15 9.508521962175852e-15
lhumerus -38.81267620602602 10.768631618530925 79.17934641263935
lradius 12.67073045426109
lwrist -4.2224443412652874
lhand -29.221621306331336 20.855288798132527
lfingers nan
lthumb -2.215527887994395 51.278982769007065
rclavicle -2.034188038677852e-15 1.152078081550732e-14
rhumerus -26.073124768481225 -22.43969115041964 -76.99066371812533
rradius 24.07767583240188
rwrist 10.900720983599074
rhand -19.09552546201763 1.0
rfingers nan
rthumb 6.92571683642009 -6.883085021781346
66
root 0.38515718114128944 17.738479682123725 33.51305550265062 -3.8113870522924396 -3.7559443278108775 -3.3658304263711933
lfemur -21.017679011594385 -5.587847479147821 -14.927866047723796
ltibia 23.932677239053625
lfoot -2.5224279844356943 -0.7299116830768015
ltoes -7.125289094023177
rfemur -4.2584935098716965 1.4332691351751738 26.115223812226855
rtibia 61.564659765833
rfoot 13.672587175804875 9.273975444639422
rtoes 16.054174709244435
lowerback 1.0 1.4801841766693118 2.961956928863408
upperback 0.3676777694959896 3.237941088219102 0.9594082961837319
thorax -4.704802333094146 1.6993580558914234 -0.7105019724500896
lowerneck -15.571689253228595 -2.836522605103305 -2.161021206928318
upperneck 24.17077754723825 -4.5637980695862135 0.0684729152323039
head 10.441966100046752 -2.0700371480588977 -0.3175305694106906
lclavicle -6.835041166143661e-15 2.738712928319583e-14
lhumerus -38.66945632360155 10.988888561779508 79.13243149903367
lradius 12.42079726498372
lwrist -2.0310741362033133
lhand -33.902230256362984 16.909977670276522
lfingers nan
lthumb -6.821054431436027 47.217126158573905
rclavicle -6.516689772021459e-15 2.9203429309653407e-14
rhumerus -27.431829822628462 -23.90260585721021 -76.2227109090828
rradius 23.346702963425674
rwrist 11.440900103109689
rhand -18.461019074840003 1.0
rfingers nan
rthumb 7.512606598036242 -7.640566188013301
67
root 0.4530253793357187 17.76337643384055 34.75117738749016 -4.279043726691718 -3.902404652337469 -1.3001143345627268
lfemur -18.664541670724397 -5.515177429042131 -17.542766548746943
ltibia 24.19784602880597
lfoot -3.726854976663704 0.5106459222767277
ltoes -6.670282712497789
rfemur -9.241802075486081 1.7417550077053932 22.809317783220845
rtibia 70.37063615723477
rfoot 8.221561501535287 4.209455094745772
rtoes 17.903456112470696
lowerback 1.0 1.489286109819181 0.7042018781201153
upperback 0.5391769799084644 2.9757961202927805 0.2717456063765604
thorax -4.883768376132893 1.6231440171752343 -0.02069003992510865
lowerneck -16.093928208952054 -2.5403716766988778 -2.1005772034837427
upperneck 24.14047738328487 -4.0851878659355965 0.08202295571862914
head 10.536426226175056 -1.886324687134606 -0.2986951095484621
lclavicle 1.8173371744367584e-14 3.558017941518716e-15
lhumerus -38.30855789458307 7.8654142588023985 80.58034743425947
lradius 14.22009929721581
lwrist 0.6379627012243168
lhand -28.749160768862126 26.407690753664173
lfingers nan
lthumb -1.9983179523748043 56.533476212330875
rclavicle 1.7451888864018427e-14 4.4216271960051316e-15
rhumerus -27.68196961647245 -25.112399358631958 -75.89626155258995
rradius 21.863141539800218
rwrist 12.787582777433737
rhand -18.789678691658928 1.0
rfingers nan
rthumb 7.206122585289439 -6.879167253225161
68
root 0.4727491577957948 17.794793175678226 34.657332212085734 -4.599971011258337 -3.239088065627457 -0.8697284478075842
lfemur -15.846964598425965 -5.909658073429357 -18.301658660009466
ltibia 23.60765306905872
lfoot -5.274838684830362 0.9866216723645875
ltoes -8.264425351517867
rfemur -13.676986106890507 0.368116209928532 21.873954332262564
rtibia 75.71812245347849
rfoot 3.850908809807658 1.576801230896315
rtoes 16.261692390072703
lowerback 1.0 0.8935968849539653 -0.03827312664709237
upperback 0.6118124708824559 2.0940840812564305 0.36629253440328235
thorax -5.047961734283487 1.1806035308381753 0.5446575177213011
lowerneck -15.315278677593689 -2.1922949166316563 -2.169793518009727
upperneck 23.318433935710217 -3.3588701859664334 -0.07545093283668386
head 10.052184622418734 -1.6662646641781855 -0.2667287302338537
lclavicle -3.8496958770411625e-14 -3.853822357027788e-15
lhumerus -37.5377505200449 7.328956956101718 80.70903072775944
lradius 15.528030467713753
lwrist -1.258484943507892
lhand -24.791076934730018 19.811686000728265
lfingers nan
lthumb 2.0259291794276577 50.10208299279994
rclavicle -3.928395302994091e-14 -3.3937148333621066e-15
rhumerus -28.183785118885712 -26.474419379408946 -75.32061769051349
rradius 20.953829293883825
rwrist 16.16436789862632
rhand -17.83707758825813 1.0
rfingers nan
rthumb 8.13278994419063 -8.678521217455266
